<svg id="Layer_1" data-name="Layer 1" xmlns="http://www.w3.org/2000/svg" viewBox="0 0 280 166.28">
	<defs>
		<style>
			.cls-1{opacity:0.97;}.cls-2,.cls-5,.cls-7{fill:#fff;}.cls-3,.cls-4,.cls-5,.cls-7{stroke:#000;}.cls-3,.cls-4,.cls-5,.cls-6,.cls-7{stroke-miterlimit:10;}.cls-3,.cls-5{stroke-width:3px;}.cls-4,.cls-6{fill:none;}.cls-4{stroke-width:7px;}.cls-6{stroke:#fff;}.cls-6,.cls-7{stroke-width:2px;}.cls-8{font-size:20px;font-family:MyriadPro-Regular, Myriad Pro;}.cls-9{letter-spacing:-0.01em;}.cls-10{letter-spacing:-0.01em;}
			@media (max-width: 700px) {
				#minmize1 {
					display: none;
				}
			}
			@media (max-width: 500px) {
				#minimize2 {
					display: none;
				}
			}
		</style>
	</defs>
	<title>icon</title>
	<g id="minimize3" class="cls-1">
		<path class="cls-2" d="M6.44,164.67C4,164.67,2,163,2,160.92V22.42c0-2,2-3.75,4.44-3.75H273.56c2.41,0,4.44,1.72,4.44,3.75v138.5c0,2-2,3.75-4.44,3.75Z" transform="translate(0 -0.39)"/>
		<path d="M273.56,20.67c1.44,0,2.44.92,2.44,1.75v138.5c0,.83-1,1.75-2.44,1.75H6.44C5,162.67,4,161.75,4,160.92V22.42c0-.83,1-1.75,2.44-1.75H273.56m0-4H6.44C2.9,16.67,0,19.26,0,22.42v138.5c0,3.16,2.9,5.75,6.44,5.75H273.56c3.54,0,6.44-2.59,6.44-5.75V22.42c0-3.16-2.9-5.75-6.44-5.75Z" transform="translate(0 -0.39)"/>
		<polygon points="136.42 16.57 156.33 0.5 205.67 0.5 225.58 16.57 136.42 16.57"/>
		<path d="M205.49,1.39l18.68,15.07H137.83L156.51,1.39h49m.35-1H156.16L135,17.46h92L205.84.39Z" transform="translate(0 -0.39)"/>
		<rect x="0.5" y="47.28" width="279" height="99"/>
		<path d="M279,48.17v98H1v-98H279m1-1H0v100H280v-100Z" transform="translate(0 -0.39)"/>
		<path class="cls-2" d="M202.88,40.67A58,58,0,1,0,241,95.17,57.72,57.72,0,0,0,202.88,40.67Zm-19.88-2a55.93,55.93,0,0,1,14.9,2H168.1A55.93,55.93,0,0,1,183,38.67Z" transform="translate(0 -0.39)"/>
		<path d="M206.87,40.67a59.5,59.5,0,1,0,35.63,54.5A59.08,59.08,0,0,0,206.87,40.67ZM183,151.67a56.5,56.5,0,0,1-14.9-111,56.5,56.5,0,0,1,29.8,0,56.5,56.5,0,0,1-14.9,111Z" transform="translate(0 -0.39)"/>
		<circle class="cls-3" cx="183.5" cy="94.28" r="46"/>
	</g>
	<g id="minimize2">
		<line class="cls-4" x1="135" y1="26.78" x2="227" y2="26.78"/>
		<path d="M227,33.67v7H197.9a56.5,56.5,0,0,0-29.8,0H135v-7Z" transform="translate(0 -0.39)"/>
		<path d="M236,18.67a2.5,2.5,0,1,1,0-5h27a2.5,2.5,0,0,1,0,5Z" transform="translate(0 -0.39)"/>
		<path d="M263,14.17a2,2,0,0,1,0,4H236a2,2,0,1,1,0-4h27m0-1H236a3,3,0,1,0,0,6h27a3,3,0,0,0,0-6Z" transform="translate(0 -0.39)"/>
		<path d="M45,18.67a2.5,2.5,0,1,1,0-5H84a2.5,2.5,0,0,1,0,5Z" transform="translate(0 -0.39)"/>
		<path d="M84,14.17a2,2,0,0,1,0,4H45a2,2,0,1,1,0-4H84m0-1H45a3,3,0,1,0,0,6H84a3,3,0,0,0,0-6Z" transform="translate(0 -0.39)"/>
	</g>
	<g id="minmize1">
		<circle class="cls-5" cx="165" cy="75.78" r="14.5"/>
		<circle class="cls-5" cx="206" cy="121.78" r="8.5"/>
		<circle class="cls-5" cx="104" cy="93.78" r="8.5"/>
		<circle cx="127" cy="13.78" r="3.5"/>
		<path d="M127,11.17a3,3,0,1,1-3,3,3,3,0,0,1,3-3m0-1a4,4,0,1,0,4,4,4,4,0,0,0-4-4Z" transform="translate(0 -0.39)"/>
		<line class="cls-6" x1="265.5" y1="43.28" x2="265.5" y2="150.28"/>
		<line class="cls-6" x1="260.5" y1="43.28" x2="260.5" y2="150.28"/>
		<line class="cls-6" x1="255.5" y1="43.28" x2="255.5" y2="150.28"/>
		<line class="cls-6" x1="250.5" y1="43.28" x2="250.5" y2="150.28"/>
		<circle class="cls-7" cx="114" cy="46.78" r="11"/>
		<text class="cls-8" transform="translate(12.67 40.32)">
			<tspan class="cls-9">Z</tspan>
			<tspan x="10.82" y="0">eni</tspan>
			<tspan class="cls-10" x="36.62" y="0">t</tspan>
			<tspan x="43.14" y="0">-E</tspan>
		</text>
	</g>
</svg>