<svg id="Layer_1" data-name="Layer 1" xmlns="http://www.w3.org/2000/svg" viewBox="0 0 273.63 116"><defs><style>.cls-1{fill:#47a3da;}</style></defs><title>ico1</title><path class="cls-1" d="M42.63,19c2.22-2.83,9.84-11.54,15.49-18A107.14,107.14,0,0,0,35.63,5C11.59,12.51,1.78,25,.08,33.88a287.17,287.17,0,0,1,34.17-5.8C36.7,25.5,39.93,22.43,42.63,19Z"/><path class="cls-1" d="M99.3,13.67C105,8.16,110.06,3.58,113.48.56Q105.19,0,96.63,0C88.14,0,79.74,0,71.72.26A151.12,151.12,0,0,1,59.3,13.67C51.16,21.6,47.4,25.29,45.68,27c9.71-.79,20.62-1.3,32.62-1.3q4.49,0,8.82.09C89,23.84,92.7,20.05,99.3,13.67Z"/><path class="cls-1" d="M154.3,21.67A78.13,78.13,0,0,1,168.75,11a209.74,209.74,0,0,0-45.21-9.6c-3.65,3.3-8.45,8.2-13.24,12.58-5.09,4.65-9.58,9.43-12,12.12A439.61,439.61,0,0,1,143,30.44,81.24,81.24,0,0,0,154.3,21.67Z"/><path class="cls-1" d="M208.3,39c-1.16-6.21-11.56-15.9-27-23-1.2-.55-2.44-1.09-3.7-1.61-2.21,1.77-5.31,4.15-9.64,7.28-7.37,5.32-12.34,8.62-15.09,10.39,11.57,2,18.8,3.87,20.43,4.27,3.93,1,31.67,7.44,36.1,9.56C209.18,43.91,208.79,41.65,208.3,39Z"/><path class="cls-1" d="M47.3,52.67A86.34,86.34,0,0,1,36.88,35.58C24.47,36.75,13.79,38,10.3,39A76.83,76.83,0,0,1,0,40.85c.82,8.5,4.56,20.38,18,25.82,9.3,3.76,24,3.3,41.21,2.75C57.71,67.39,54.58,62.1,47.3,52.67Z"/><path class="cls-1" d="M95.63,48.33a134.83,134.83,0,0,1-9.12-16c-.88,0-1.74,0-2.55,0-7.94.17-24.09,1.24-39.37,2.56,2.58,3.86,6.83,10,12.71,17.78C64.32,62,67,66.93,68,69.16c3.79-.09,7.66-.16,11.59-.16,7.88,0,19.15,1.13,31.54,2.39C108.35,67.29,101.18,56.66,95.63,48.33Z"/><path class="cls-1" d="M151.63,54.33c-2.17-3.47-5.9-10.91-8.24-15.67-17.17-2.85-34.44-5.09-47.47-6l23.79,39.55c15,1.49,30.83,2.85,43.9,2.49C160.85,70.22,154.51,58.93,151.63,54.33Z"/><path class="cls-1" d="M160.3,41.67q-4.08-.78-8.25-1.52c2,3.42,5,8.38,9.25,15.18,6.68,10.6,8.74,16.42,9.38,19a67.06,67.06,0,0,0,7.28-1A57.38,57.38,0,0,0,204.3,60a18,18,0,0,0,4-5A325.57,325.57,0,0,0,160.3,41.67Z"/><path class="cls-1" d="M98,116c-24.26,0-44.35-5.54-56.33-14.33a50.25,50.25,0,0,1-18.33-25s24.24,2,78,2c13,0,31.18,4.28,44,4.33,21.92.09,36-2.33,36-2.33A61.55,61.55,0,0,1,156.63,108C142.91,115.92,121.34,116,98,116Z"/><path class="cls-1" d="M273.63,57.33c0,3-2.32,9-6,10.34-3.84,1.4-10.15-2-10.75.5-.85,3.49,6.13,6,6.75,9.5a10.27,10.27,0,0,1-10.33,12c-16.94,0-37.67-29-37.67-29l5.33-13S273.63,39.11,273.63,57.33Z"/></svg>