<svg id="Layer_1" data-name="Layer 1" xmlns="http://www.w3.org/2000/svg" viewBox="0 0 239.4 266.83"><defs><style>.cls-1{fill:#47a3da;}</style></defs><title>2</title><path class="cls-1" d="M42.15,244.33h99.92a90.88,90.88,0,0,0,43.64-70H.73C6.21,207.29,20.85,230.79,42.15,244.33Z" transform="translate(-0.73 -0.17)"/><rect class="cls-1" x="49.27" y="251.17" width="88.33" height="15.67"/><path class="cls-1" d="M65.78,182.7l-4.06-2.9c3.61-5.07,8.93-14.91,7.84-19.75-1.56-6.92-4.46-14.65-15-24.2-4.19-3.8-6.38-7.87-6.52-12.11a13.59,13.59,0,0,1,3.2-9c3.9-6.08,10.28-16.48,11.13-19,0,0,2.06-7.86-4.37-20.72l4.48-2.23C70,87.71,67.15,97.2,67.12,97.29c-1.33,4-10.7,18.65-11.77,20.31l-.13.21-.17.18a8.54,8.54,0,0,0-2,5.66c.12,2.81,1.76,5.67,4.88,8.5,11.56,10.48,14.76,19.07,16.51,26.8C76.38,167.54,66.87,181.18,65.78,182.7Z" transform="translate(-0.73 -0.17)"/><path class="cls-1" d="M91.12,182l-4.07-2.91c3.61-5.07,8.94-14.91,7.84-19.75-1.56-6.92-4.46-14.65-15-24.2-4.18-3.79-6.38-7.87-6.51-12.1a13.49,13.49,0,0,1,3.2-9c3.9-6.08,10.27-16.48,11.12-19,0,0,2.07-7.85-4.36-20.71l4.47-2.24c7.48,15,4.67,24.44,4.64,24.53-1.34,4-10.71,18.66-11.77,20.31l-.14.21-.17.18a8.5,8.5,0,0,0-2,5.66c.11,2.81,1.75,5.67,4.87,8.5C94.82,142,98,150.56,99.77,158.28,101.71,166.88,92.21,180.51,91.12,182Z" transform="translate(-0.73 -0.17)"/><path class="cls-1" d="M116.12,179.7l-4.07-2.9c3.61-5.07,8.94-14.91,7.84-19.75-1.56-6.92-4.46-14.65-15-24.2-4.18-3.8-6.38-7.87-6.51-12.11a13.54,13.54,0,0,1,3.2-9c3.9-6.08,10.27-16.48,11.12-19,0,0,2.07-7.86-4.36-20.72l4.47-2.23c7.48,14.95,4.67,24.44,4.64,24.53-1.34,4-10.71,18.65-11.77,20.31l-.14.21-.17.18a8.5,8.5,0,0,0-2,5.66c.11,2.81,1.75,5.67,4.87,8.5,11.56,10.48,14.77,19.07,16.51,26.8C126.71,164.54,117.21,178.18,116.12,179.7Z" transform="translate(-0.73 -0.17)"/><path class="cls-1" d="M24,83.42l-.08-1v-.57c0-.34.05-.48.12-.49l.42-.09.83-.18,1.68-.37L30.26,80,37,78.53,50.32,75.6l26.75-5.84c17.85-3.83,35.68-7.74,53.55-11.49S166.33,50.73,184.2,47L211,41.55l13.41-2.73,13.43-2.66,2.26,11.68-13.45,2.55-13.46,2.47-26.92,5q-27,4.86-53.92,9.59c-18,3.19-36,6.23-53.95,9.34l-27,4.57-13.5,2.28-6.75,1.14-3.38.57-1.69.29-.84.14-.42.07c-.07,0-.16-.09-.3-.4l-.21-.53-.29-1Z" transform="translate(-0.73 -0.17)"/><path class="cls-1" d="M19.8,64.11l-.16-1-.05-.57c0-.33,0-.48.09-.49l.41-.12.82-.25,1.64-.5,3.27-1,6.55-2,13.1-4L71.68,46.3c17.49-5.22,35-10.51,52.48-15.66s35-10.33,52.53-15.43L203,7.65l13.16-3.78L229.34.17l3.17,11.45-13.21,3.6-13.22,3.53L179.63,25.8q-26.49,7-53,13.8c-17.67,4.6-35.37,9-53.06,13.56L47,59.84,33.75,63.18l-6.64,1.66-3.32.84-1.66.41-.83.21-.42.11c-.06,0-.17-.08-.32-.38l-.26-.52-.36-.92Z" transform="translate(-0.73 -0.17)"/></svg>