<svg id="Layer_1" data-name="Layer 1" xmlns="http://www.w3.org/2000/svg" viewBox="0 0 253.03 224.4"><defs><style>.cls-1{fill:#47a3da;}</style></defs><title>03</title><path class="cls-1" d="M.75,69l1,98s23,43,129,55,123-24,123-24V106s-45,42-142,14S.75,69,.75,69Z" transform="translate(-0.72 -0.05)"/><circle class="cls-1" cx="97.03" cy="76.95" r="18"/><path class="cls-1" d="M144.84,78.55a17.91,17.91,0,0,1-13.44,2.36,17.68,17.68,0,0,1,.18,2.42,18,18,0,0,1-9.91,16.07,18,18,0,0,0,34-7.1A18,18,0,0,1,144.84,78.55Z" transform="translate(-0.72 -0.05)"/><path class="cls-1" d="M107.09,26.74a18,18,0,0,1,16.14-13.43A18,18,0,0,0,89.64,11,18,18,0,0,1,107.09,26.74Z" transform="translate(-0.72 -0.05)"/><path class="cls-1" d="M43.75,46.75a17.28,17.28,0,0,1,2.9.26,17.93,17.93,0,0,1-1.84-17.82A18,18,0,0,0,26.47,59.76,18,18,0,0,1,43.75,46.75Z" transform="translate(-0.72 -0.05)"/><circle class="cls-1" cx="213.03" cy="91.95" r="18"/><path class="cls-1" d="M188.74,113.46A18,18,0,0,1,181,101.59a17.44,17.44,0,0,1-3.78.41,17.75,17.75,0,0,1-6.49-1.23c0,.08,0,.15,0,.23a17.94,17.94,0,0,0,6.36,13.72,17.73,17.73,0,0,1,11.63-1.26Z" transform="translate(-0.72 -0.05)"/><path class="cls-1" d="M161.25,37a18.19,18.19,0,0,1-.39,3.72,17.92,17.92,0,0,1,21-5.93A18,18,0,0,0,149.14,20,18,18,0,0,1,161.25,37Z" transform="translate(-0.72 -0.05)"/><path class="cls-1" d="M205.88,57.88c1.23-.65,6.11-.88,10.12-.13A29.24,29.24,0,0,1,224.63,61a57.26,57.26,0,0,0,.79-8.67,18,18,0,0,0-31-12.38C202,42,205.75,49.66,205.88,57.88Z" transform="translate(-0.72 -0.05)"/><path class="cls-1" d="M180.25,83.67a18.41,18.41,0,0,1,13.92-18,18,18,0,1,0-13.86,19.2C180.28,84.46,180.25,84.07,180.25,83.67Z" transform="translate(-0.72 -0.05)"/><path class="cls-1" d="M54.67,84.83C60.41,86.46,67.38,92,67.38,92S65.63,88.88,65,78.5c-.31-5.11.9-13,4.33-16.26A18,18,0,0,0,40.26,83.29C42.13,82.63,45.42,82.21,54.67,84.83Z" transform="translate(-0.72 -0.05)"/><path class="cls-1" d="M128.5,29.5a18,18,0,0,0-18,17.25A18,18,0,0,1,123,52.25a17.25,17.25,0,0,1,5.5,12.5c0,.25,0,.5,0,.75h0a18,18,0,0,0,0-36Z" transform="translate(-0.72 -0.05)"/><path class="cls-1" d="M59.5,39.75A18,18,0,0,1,77.13,54.1,18,18,0,0,1,93.7,43a17.81,17.81,0,0,0,1-6,18,18,0,0,0-36,0A17,17,0,0,0,59,39.78Z" transform="translate(-0.72 -0.05)"/><path class="cls-1" d="M.72,68.55l1,98s23,43,129,55,123-24,123-24v-92s-45,42-142,14S.72,68.55.72,68.55Z" transform="translate(-0.72 -0.05)"/><circle class="cls-1" cx="97" cy="76.5" r="18"/><path class="cls-1" d="M144.8,78.1a17.88,17.88,0,0,1-9.58,2.78,18.09,18.09,0,0,1-3.85-.42,17.56,17.56,0,0,1,.18,2.42,18,18,0,0,1-9.91,16.06,18,18,0,0,0,34-7.1A18,18,0,0,1,144.8,78.1Z" transform="translate(-0.72 -0.05)"/><path class="cls-1" d="M107.06,26.29A18,18,0,0,1,123.2,12.86a18,18,0,0,0-33.59-2.29A18,18,0,0,1,107.06,26.29Z" transform="translate(-0.72 -0.05)"/><path class="cls-1" d="M43.72,46.3a18.4,18.4,0,0,1,2.9.25,17.91,17.91,0,0,1-1.84-17.81A18,18,0,0,0,26.43,59.31,18,18,0,0,1,43.72,46.3Z" transform="translate(-0.72 -0.05)"/><circle class="cls-1" cx="213" cy="91.5" r="18"/><path class="cls-1" d="M188.71,113A18.05,18.05,0,0,1,181,101.14a17.7,17.7,0,0,1-10.27-.82c0,.08,0,.15,0,.23a18,18,0,0,0,6.36,13.72,17.76,17.76,0,0,1,7.64-1.72A17.56,17.56,0,0,1,188.71,113Z" transform="translate(-0.72 -0.05)"/><path class="cls-1" d="M161.22,36.55a18.17,18.17,0,0,1-.39,3.71,18,18,0,0,1,14.39-7.21,17.75,17.75,0,0,1,6.66,1.29,18,18,0,0,0-32.77-14.79A18,18,0,0,1,161.22,36.55Z" transform="translate(-0.72 -0.05)"/><path class="cls-1" d="M205.84,57.42c1.24-.65,6.12-.88,10.13-.12a29.15,29.15,0,0,1,8.62,3.25,56.23,56.23,0,0,0,.8-8.67,18,18,0,0,0-31-12.38C202,41.52,205.72,49.2,205.84,57.42Z" transform="translate(-0.72 -0.05)"/><path class="cls-1" d="M180.22,83.21a18.38,18.38,0,0,1,13.91-18,18,18,0,1,0-17.91,19.67,17.55,17.55,0,0,0,4.06-.48C180.25,84,180.22,83.62,180.22,83.21Z" transform="translate(-0.72 -0.05)"/><path class="cls-1" d="M54.64,84.38c5.74,1.63,12.7,7.17,12.7,7.17S65.59,88.42,65,78.05c-.31-5.12.9-13,4.33-16.26A18,18,0,0,0,40.23,82.84C42.1,82.18,45.39,81.76,54.64,84.38Z" transform="translate(-0.72 -0.05)"/><path class="cls-1" d="M128.47,29.05a18,18,0,0,0-18,17.25A18,18,0,0,1,123,51.8a17.21,17.21,0,0,1,5.5,12.5c0,.25,0,.49,0,.74h0a18,18,0,1,0,0-36Z" transform="translate(-0.72 -0.05)"/><path class="cls-1" d="M59.47,39.3A18,18,0,0,1,77.1,53.64,18,18,0,0,1,93.67,42.55a18,18,0,1,0-34.95-6A18.06,18.06,0,0,0,59,39.32Z" transform="translate(-0.72 -0.05)"/></svg>