<svg id="Layer_1" data-name="Layer 1" xmlns="http://www.w3.org/2000/svg" viewBox="0 0 210.5 225.86"><defs><style>.cls-1{fill:#47a3da;}</style></defs><title>4</title><circle class="cls-1" cx="43.5" cy="155.86" r="43.5"/><circle class="cls-1" cx="167" cy="182.36" r="43.5"/><path class="cls-1" d="M105,30.33s6.67,9.34,11.33,35c2.23,12.25-.8,25.86-7.33,34.92-7.16,9.93-12.22,11.06-16.81,14.63-.92.71-3.44,3-3.52,4.12-.07.9.57,2.86,1.33,3.33,1.13.71,4,.36,5.25-.08,7-2.42,11.75-7.25,21.08-20.25S123,67,123,67s6.33,8.67,13.33,31.33,5.16,19.27,7.92,25.3c.48,1,1.87,3.25,3,3.5s3.74-.95,4.25-2,0-3.88-.25-5.13c-2.43-10.59-2.5-9.75-13.75-41.25-3.8-10.65-7.43-17.18-10-22.75-5-10.91-7.33-15.5-7.33-15.5l9.66-8.17s2.48,5.51,6.67,7.84a11.58,11.58,0,0,0,5,1.08c5.75.25,16.75-7.5,20-12.5s7.92-8.7,11.5-10c6.18-2.25,6.67-5.25,6.67-5.25s-7.42-7.12-15.92-10.75C157.58.12,144.5.25,140.25,1.5s-10.75,5.75-13.5,10-2,7.08-1.25,8.83,5.33.5,5.33.5S138.5,14.5,143.25,13s12.5,0,12.5,0S146.5,15.75,144,17.25s-11.25,5.5-16.25,9.5-8.5,7.25-10.5,8.5S113,30,111,22.75a57.21,57.21,0,0,1-2-17.5c.25-3-8-2.25-11.75.5S89,12.06,89.75,16c1,5.25,4.75,7.75,6.75,8.25S105,30.33,105,30.33Z" transform="translate(-1 -0.64)"/></svg>